<?xml version="1.0" encoding="utf-8"?>
<!-- Generator: Adobe Illustrator 16.0.0, SVG Export Plug-In . SVG Version: 6.00 Build 0)  -->
<!DOCTYPE svg PUBLIC "-//W3C//DTD SVG 1.1//EN" "http://www.w3.org/Graphics/SVG/1.1/DTD/svg11.dtd">
<svg version="1.1" id="Layer_1" xmlns="http://www.w3.org/2000/svg" xmlns:xlink="http://www.w3.org/1999/xlink" x="0px" y="0px"
	 width="296.75px" height="49.75px" viewBox="0 0 296.75 49.75" enable-background="new 0 0 296.75 49.75" xml:space="preserve">
<g>
	<path fill="#B2B3B3" d="M216.76,34.725c-1.47,0-2.664-1.197-2.664-2.668V16.332c0-1.47,1.194-2.665,2.664-2.665
		c1.471,0,2.663,1.195,2.663,2.665v15.725C219.423,33.527,218.229,34.725,216.76,34.725z M216.76,13.943
		c-1.316,0-2.391,1.071-2.391,2.389v15.725c0,1.32,1.074,2.389,2.391,2.389c1.317,0,2.393-1.067,2.393-2.389V16.332
		C219.15,15.014,218.077,13.943,216.76,13.943z"/>
	<path fill="#B2B3B3" d="M219.288,21.292c0,0,1.424,0.092,1.424,1.057c0,0.964,0,3.719,0,3.719s-0.091,1.027-1.424,1.027V21.292z"/>
	<path fill="#B2B3B3" d="M214.234,27.096c0,0-1.424-0.09-1.424-1.055s0-3.721,0-3.721s0.092-1.028,1.424-1.028V27.096z"/>
</g>
<g>
	<path fill="#B2B3B3" d="M225.089,34.725c-1.47,0-2.665-1.197-2.665-2.668V16.332c0-1.47,1.195-2.665,2.665-2.665
		s2.665,1.195,2.665,2.665v15.725C227.754,33.527,226.559,34.725,225.089,34.725z M225.089,13.943c-1.317,0-2.389,1.071-2.389,2.389
		v15.725c0,1.32,1.071,2.389,2.389,2.389c1.318,0,2.39-1.067,2.39-2.389V16.332C227.479,15.014,226.406,13.943,225.089,13.943z"/>
	<path fill="#B2B3B3" d="M227.616,21.292c0,0,1.425,0.092,1.425,1.057c0,0.964,0,3.719,0,3.719s-0.094,1.027-1.425,1.027V21.292z"/>
	<path fill="#B2B3B3" d="M222.561,27.096c0,0-1.424-0.09-1.424-1.055s0-3.721,0-3.721s0.092-1.028,1.424-1.028V27.096z"/>
</g>
<g>
	<path fill="#B2B3B3" d="M233.417,34.725c-1.47,0-2.667-1.197-2.667-2.668V16.332c0-1.47,1.197-2.665,2.667-2.665
		c1.468,0,2.665,1.195,2.665,2.665v15.725C236.082,33.527,234.885,34.725,233.417,34.725z M233.417,13.943
		c-1.317,0-2.392,1.071-2.392,2.389v15.725c0,1.32,1.074,2.389,2.392,2.389s2.388-1.067,2.388-2.389V16.332
		C235.805,15.014,234.734,13.943,233.417,13.943z"/>
	<path fill="#B2B3B3" d="M235.941,21.292c0,0,1.426,0.092,1.426,1.057c0,0.964,0,3.719,0,3.719s-0.092,1.027-1.426,1.027V21.292z"/>
	<path fill="#B2B3B3" d="M230.889,27.096c0,0-1.426-0.09-1.426-1.055s0-3.721,0-3.721s0.094-1.028,1.426-1.028V27.096z"/>
</g>
<g>
	<path fill="#B2B3B3" d="M241.743,34.725c-1.47,0-2.665-1.197-2.665-2.668V16.332c0-1.47,1.195-2.665,2.665-2.665
		s2.665,1.195,2.665,2.665v15.725C244.408,33.527,243.213,34.725,241.743,34.725z M241.743,13.943c-1.317,0-2.39,1.071-2.39,2.389
		v15.725c0,1.32,1.071,2.389,2.39,2.389c1.317,0,2.391-1.067,2.391-2.389V16.332C244.134,15.014,243.061,13.943,241.743,13.943z"/>
	<path fill="#B2B3B3" d="M244.27,21.292c0,0,1.426,0.092,1.426,1.057c0,0.964,0,3.719,0,3.719s-0.094,1.027-1.426,1.027V21.292z"/>
	<path fill="#B2B3B3" d="M239.216,27.096c0,0-1.422-0.09-1.422-1.055s0-3.721,0-3.721s0.089-1.028,1.422-1.028V27.096z"/>
</g>
<g>
	<path fill="#B2B3B3" d="M250.072,34.725c-1.471,0-2.666-1.197-2.666-2.668V16.332c0-1.47,1.195-2.665,2.666-2.665
		c1.47,0,2.662,1.195,2.662,2.665v15.725C252.734,33.527,251.542,34.725,250.072,34.725z M250.072,13.943
		c-1.317,0-2.393,1.071-2.393,2.389v15.725c0,1.32,1.074,2.389,2.393,2.389c1.316,0,2.388-1.067,2.388-2.389V16.332
		C252.46,15.014,251.389,13.943,250.072,13.943z"/>
	<path fill="#B2B3B3" d="M252.6,21.292c0,0,1.422,0.092,1.422,1.057c0,0.964,0,3.719,0,3.719s-0.088,1.027-1.422,1.027V21.292z"/>
	<path fill="#B2B3B3" d="M247.544,27.096c0,0-1.424-0.09-1.424-1.055s0-3.721,0-3.721s0.094-1.028,1.424-1.028V27.096z"/>
</g>
<g>
	<path fill="#B2B3B3" d="M258.398,34.725c-1.469,0-2.664-1.197-2.664-2.668V16.332c0-1.47,1.195-2.665,2.664-2.665
		c1.47,0,2.666,1.195,2.666,2.665v15.725C261.064,33.527,259.868,34.725,258.398,34.725z M258.398,13.943
		c-1.317,0-2.387,1.071-2.387,2.389v15.725c0,1.32,1.068,2.389,2.387,2.389c1.317,0,2.389-1.067,2.389-2.389V16.332
		C260.787,15.014,259.716,13.943,258.398,13.943z"/>
	<path fill="#B2B3B3" d="M260.926,21.292c0,0,1.424,0.092,1.424,1.057c0,0.964,0,3.719,0,3.719s-0.091,1.027-1.424,1.027V21.292z"/>
	<path fill="#B2B3B3" d="M255.872,27.096c0,0-1.424-0.09-1.424-1.055s0-3.721,0-3.721s0.092-1.028,1.424-1.028V27.096z"/>
</g>
<g>
	<path fill="#B2B3B3" d="M266.727,34.725c-1.468,0-2.664-1.197-2.664-2.668V16.332c0-1.47,1.196-2.665,2.664-2.665
		c1.471,0,2.666,1.195,2.666,2.665v15.725C269.393,33.527,268.195,34.725,266.727,34.725z M266.727,13.943
		c-1.316,0-2.389,1.071-2.389,2.389v15.725c0,1.32,1.071,2.389,2.389,2.389c1.319,0,2.39-1.067,2.39-2.389V16.332
		C269.115,15.014,268.046,13.943,266.727,13.943z"/>
	<path fill="#B2B3B3" d="M269.252,21.292c0,0,1.428,0.092,1.428,1.057c0,0.964,0,3.719,0,3.719s-0.095,1.027-1.428,1.027V21.292z"/>
	<path fill="#B2B3B3" d="M264.198,27.096c0,0-1.425-0.09-1.425-1.055s0-3.721,0-3.721s0.093-1.028,1.425-1.028V27.096z"/>
</g>
<g>
	<path fill="none" d="M275.943,24.155"/>
</g>
<path fill="none" stroke="#B2B3B3" stroke-miterlimit="10" stroke-dasharray="2,2" d="M272.9,24.43h14.084
	c0,0,7.99-0.146,7.99,6.587c0,6.319,0,10.075,0,10.075s0.139,6.763-7.24,6.763c-9,0-49.754,0-49.754,0h-1.996h-2.928H114.985
	c0,0-9.105,0.176-9.105-9.105c0-9.283,0-4.512,0-4.512s0.429-8.814-8.813-8.814c-9.242,0-9.32,0-9.32,0"/>
<path fill="none" stroke="#FFFFFF" stroke-miterlimit="10" stroke-dasharray="2,2" d="M210.234,25.08c0,0-4.078,0-13.32,0
	s-8.814-8.813-8.814-8.813s0,4.771,0-4.512c0-9.283-9.104-9.105-9.104-9.105H60.923h-2.929h-3.437c0,0-35.755,0-44.755,0
	c-7.379,0-7.24,6.761-7.24,6.761s0,2.595,0,8.914c0,6.733,7.99,6.588,7.99,6.588H25.72h59.488"/>
</svg>
