<?xml version="1.0" encoding="utf-8"?>
<!-- Generator: Adobe Illustrator 16.0.0, SVG Export Plug-In . SVG Version: 6.00 Build 0)  -->
<!DOCTYPE svg PUBLIC "-//W3C//DTD SVG 1.1//EN" "http://www.w3.org/Graphics/SVG/1.1/DTD/svg11.dtd">
<svg version="1.1" id="Layer_1" xmlns="http://www.w3.org/2000/svg" xmlns:xlink="http://www.w3.org/1999/xlink" x="0px" y="0px"
	 width="20px" height="30px" viewBox="0 0 20 30" enable-background="new 0 0 20 30" xml:space="preserve">
<g>
	<path fill="#FFFFFF" d="M10.467,26.121c-1.469,0-2.663-1.197-2.663-2.667V7.729c0-1.47,1.194-2.665,2.663-2.665
		c1.47,0,2.666,1.195,2.666,2.665v15.726C13.133,24.924,11.938,26.121,10.467,26.121z M10.467,5.34C9.15,5.34,8.08,6.411,8.08,7.729
		v15.726c0,1.319,1.07,2.388,2.388,2.388c1.318,0,2.388-1.068,2.388-2.388V7.729C12.855,6.411,11.785,5.34,10.467,5.34z"/>
	<path fill="#FFFFFF" d="M12.994,12.688c0,0,1.424,0.092,1.424,1.057c0,0.964,0,3.721,0,3.721s-0.092,1.027-1.424,1.027V12.688z"/>
	<path fill="#FFFFFF" d="M7.94,18.493c0,0-1.423-0.091-1.423-1.056s0-3.721,0-3.721s0.09-1.028,1.423-1.028V18.493z"/>
</g>
</svg>
