<?xml version="1.0" encoding="utf-8"?>
<!-- Generator: Adobe Illustrator 16.0.0, SVG Export Plug-In . SVG Version: 6.00 Build 0)  -->
<!DOCTYPE svg PUBLIC "-//W3C//DTD SVG 1.1//EN" "http://www.w3.org/Graphics/SVG/1.1/DTD/svg11.dtd">
<svg version="1.1" id="Layer_1" xmlns="http://www.w3.org/2000/svg" xmlns:xlink="http://www.w3.org/1999/xlink" x="0px" y="0px"
	 width="42.696px" height="37.054px" viewBox="0 0 42.696 37.054" enable-background="new 0 0 42.696 37.054" xml:space="preserve">
<path fill="#FFFFFF" d="M33.907,30.667c5.859-12.08,1.521-22.536,0.032-25.484l2.512-1.256L36.452,1.8L4.205,17.931l32.238,16.123
	l0.008-2.114L33.907,30.667z M36.028,14.288c0,0.673-0.545,1.218-1.219,1.218c-0.673,0-1.22-0.545-1.22-1.218
	c0-0.675,0.547-1.219,1.22-1.219C35.483,13.069,36.028,13.613,36.028,14.288z M32.904,5.698
	c-4.314,10.647-1.288,20.916,0.044,24.489L8.437,17.931L32.904,5.698z"/>
</svg>
