<?xml version="1.0" encoding="utf-8"?>
<!-- Generator: Adobe Illustrator 16.0.0, SVG Export Plug-In . SVG Version: 6.00 Build 0)  -->
<!DOCTYPE svg PUBLIC "-//W3C//DTD SVG 1.1//EN" "http://www.w3.org/Graphics/SVG/1.1/DTD/svg11.dtd">
<svg version="1.1" id="Layer_1" xmlns="http://www.w3.org/2000/svg" xmlns:xlink="http://www.w3.org/1999/xlink" x="0px" y="0px"
	 width="38.25px" height="38px" viewBox="0 0 38.25 38" enable-background="new 0 0 38.25 38" xml:space="preserve">
<g>
	<g>
		<circle fill="#F3D812" cx="19.125" cy="19" r="6.405"/>
	</g>
	<g>
		<rect x="18.817" y="1.473" fill="#F3D812" width="0.615" height="6.165"/>
		<rect x="18.817" y="30.362" fill="#F3D812" width="0.615" height="6.165"/>
	</g>
	<g>
		
			<rect x="8.82" y="6.183" transform="matrix(0.4999 0.8661 -0.8661 0.4999 11.5733 -7.0626)" fill="#F3D812" width="6.166" height="0.616"/>
		
			<rect x="23.264" y="31.202" transform="matrix(0.5 0.866 -0.866 0.5 40.4616 -7.0625)" fill="#F3D812" width="6.166" height="0.615"/>
	</g>
	<g>
		
			<rect x="3.533" y="11.47" transform="matrix(0.866 0.5 -0.5 0.866 6.7752 -1.7297)" fill="#F3D812" width="6.165" height="0.615"/>
		
			<rect x="28.551" y="25.914" transform="matrix(0.866 0.5 -0.5 0.866 17.3495 -12.3041)" fill="#F3D812" width="6.166" height="0.616"/>
	</g>
	<g>
		<rect x="1.598" y="18.692" fill="#F3D812" width="6.165" height="0.615"/>
		<rect x="30.486" y="18.692" fill="#F3D812" width="6.166" height="0.615"/>
	</g>
	<g>
		
			<rect x="6.307" y="23.14" transform="matrix(0.4997 0.8662 -0.8662 0.4997 26.0227 7.3883)" fill="#F3D812" width="0.616" height="6.165"/>
		
			<rect x="31.326" y="8.695" transform="matrix(0.4997 0.8662 -0.8662 0.4997 26.0273 -21.5092)" fill="#F3D812" width="0.616" height="6.165"/>
	</g>
	<g>
		
			<rect x="11.595" y="28.427" transform="matrix(0.8662 0.4997 -0.4997 0.8662 17.3389 -1.7315)" fill="#F3D812" width="0.616" height="6.165"/>
		
			<rect x="26.039" y="3.408" transform="matrix(0.8658 0.5003 -0.5003 0.8658 6.7821 -12.3112)" fill="#F3D812" width="0.616" height="6.166"/>
	</g>
</g>
</svg>
